# xmcd
#
# Track frame offsets:
#	150
#	35475
#	58527
#	89439
#	112364
#	128771
#	147822
#	195155
#
# Disc length: 2908 seconds
# Revision: 0
# Processed by: cddbd v1.5.2PL0 Copyright (c) Steve Scherf et al.
# Submitted via: dBpowerAMP V12.0
#
DISCID=6c0b5a08
DTITLE=Johnny Winter - Remembrance Volume 2 [Disc 1]
DYEAR=2017
DGENRE=Blues
TTITLE0=Catfish Blues
TTITLE1=EZ Rider
TTITLE2=Done Somebody Wrong
TTITLE3=It's My Life Baby
TTITLE4=Stones In My Passway
TTITLE5=44 Blues
TTITLE6=Roll Over Beethoven
TTITLE7=Rock And Roll Hoochie Koo
EXTD=
EXTT0=
EXTT1=
EXTT2=
EXTT3=
EXTT4=
EXTT5=
EXTT6=
EXTT7=
PLAYORDER=
